<?xml version="1.0" standalone="no"?>
<!DOCTYPE svg PUBLIC "-//W3C//DTD SVG 20010904//EN"
 "http://www.w3.org/TR/2001/REC-SVG-20010904/DTD/svg10.dtd">
<svg version="1.0" xmlns="http://www.w3.org/2000/svg"
 width="326.000000pt" height="476.000000pt" viewBox="0 0 326.000000 476.000000"
 preserveAspectRatio="xMidYMid meet">

<g transform="translate(0.000000,476.000000) scale(0.100000,-0.100000)"
fill="white" stroke="none">
<path d="M1662 4742 c-7 -5 -14 -29 -16 -54 -2 -25 -6 -50 -9 -55 -3 -5 -8
-27 -11 -48 -3 -22 -19 -105 -35 -185 -16 -79 -28 -151 -26 -160 1 -8 -1 -17
-6 -20 -4 -3 -10 -23 -13 -45 -21 -163 -108 -490 -152 -577 -8 -16 -12 -28 -9
-28 3 0 -1 -10 -10 -23 -8 -13 -12 -27 -8 -30 3 -4 2 -7 -4 -7 -6 0 -16 -15
-23 -32 -8 -18 -20 -41 -28 -50 -8 -9 -11 -23 -6 -30 4 -7 4 -10 -1 -6 -4 4
-33 -32 -64 -80 -60 -94 -156 -215 -215 -271 -19 -19 -32 -39 -29 -44 3 -6 1
-7 -5 -4 -5 4 -21 -5 -34 -20 -53 -63 -238 -199 -365 -269 -37 -21 -71 -43
-75 -48 -4 -6 -8 -8 -8 -5 0 4 -41 -11 -90 -32 -102 -44 -291 -103 -362 -114
-38 -6 -48 -11 -48 -26 0 -12 8 -19 20 -20 22 -2 28 -3 50 -12 23 -8 90 -29
103 -31 7 -1 17 -4 22 -7 8 -5 79 -31 95 -34 3 -1 41 -19 85 -39 44 -21 86
-39 93 -39 6 0 12 -4 12 -8 0 -4 28 -23 63 -42 148 -83 365 -268 482 -411 22
-27 50 -59 61 -72 12 -12 19 -25 16 -28 -3 -3 0 -6 6 -6 7 0 12 -5 12 -10 0
-6 21 -43 48 -83 26 -40 65 -109 87 -155 21 -45 43 -82 48 -82 4 0 5 -4 2 -10
-3 -5 0 -20 7 -32 7 -13 13 -25 13 -28 2 -11 38 -116 44 -125 3 -5 6 -15 7
-20 1 -6 12 -51 24 -100 12 -49 24 -96 25 -105 2 -8 4 -15 5 -15 1 0 3 -9 4
-20 6 -41 50 -230 55 -235 3 -3 7 -14 8 -25 3 -35 14 -85 69 -320 64 -269 61
-258 70 -313 5 -32 11 -42 23 -40 9 2 16 10 17 18 0 8 6 41 13 73 7 33 14 73
16 90 2 18 6 46 10 62 3 17 10 54 16 83 6 30 8 56 5 59 -3 4 -2 11 3 17 5 6
12 29 14 51 3 22 17 101 31 175 14 74 27 151 30 170 2 19 9 59 15 89 6 29 9
57 6 61 -3 5 -1 11 4 14 5 3 13 30 17 59 9 60 7 51 22 101 6 22 9 43 6 48 -3
4 0 8 5 8 6 0 11 8 11 18 0 9 23 73 51 142 204 508 617 896 1136 1069 68 23
129 41 138 41 8 0 15 9 15 20 0 15 -7 20 -27 22 -34 1 -43 3 -63 11 -8 3 -62
21 -120 41 -58 19 -136 49 -175 67 -38 18 -73 32 -77 31 -5 -1 -8 2 -8 7 0 5
-15 15 -32 22 -37 15 -260 163 -293 194 -110 104 -218 212 -239 240 -14 18
-32 40 -40 48 -21 21 -156 227 -156 239 0 5 -4 7 -8 4 -5 -3 -9 0 -9 7 -1 7
-24 62 -51 122 -27 61 -64 155 -82 210 -17 55 -34 107 -37 115 -4 8 -5 18 -5
23 1 4 -2 27 -8 51 -5 25 -30 174 -55 333 -25 158 -52 328 -60 377 -8 49 -15
93 -15 98 0 10 -11 10 -28 0z"/>
</g>
</svg>
